<?xml version="1.0" encoding="UTF-8" standalone="no"?>
<!-- Created with Inkscape (http://www.inkscape.org/) -->

<svg
   xmlns:dc="http://purl.org/dc/elements/1.1/"
   xmlns:cc="http://creativecommons.org/ns#"
   xmlns:rdf="http://www.w3.org/1999/02/22-rdf-syntax-ns#"
   xmlns:svg="http://www.w3.org/2000/svg"
   xmlns="http://www.w3.org/2000/svg"
   version="1.1"
   width="12"
   height="10"
   id="svg2">
  <defs
     id="defs4" />
  <metadata
     id="metadata7">
    <rdf:RDF>
      <cc:Work
         rdf:about="">
        <dc:format>image/svg+xml</dc:format>
        <dc:type
           rdf:resource="http://purl.org/dc/dcmitype/StillImage" />
        <dc:title></dc:title>
      </cc:Work>
    </rdf:RDF>
  </metadata>
  <g
     transform="translate(0,-1042.3622)"
     id="layer1">
    <path
       d="m 2.0025485,1043.3853 2.0198115,0 0,1.0185 0.984011,0 0,0.984 1.985286,0 0,-0.984 1.001274,0 0,-1.0185 2.002548,0 0,1.0013 0,0 0,0 -1.001274,0 0,1.0012 -1.001274,0 0,0.9841 -1.001274,0 0,1.0012 1.001274,0 0,1.0013 1.001274,0 0,1.0013 1.001274,0 0,1.0013 -2.002548,0 0,-1.0013 -1.001274,0 0,-0.984 -1.985286,0 0,0.984 -1.001274,0 0,1.0013 -2.0025485,0 0,-1.0013 1.0012745,0 0,-1.0013 1.001274,0 0,-1.0013 1.001274,0 0,-1.0012 -1.001274,0 0,-0.9841 -1.001274,0 0,-1.0012 -1.0012745,0 0,-1.0186 z"
       id="path3884"
       style="fill:#000000;fill-opacity:1;stroke:none" />
  </g>
</svg>
