<?xml version="1.0" encoding="UTF-8" standalone="no"?>
<!-- Created with Inkscape (http://www.inkscape.org/) -->

<svg
   xmlns:dc="http://purl.org/dc/elements/1.1/"
   xmlns:cc="http://creativecommons.org/ns#"
   xmlns:rdf="http://www.w3.org/1999/02/22-rdf-syntax-ns#"
   xmlns:svg="http://www.w3.org/2000/svg"
   xmlns="http://www.w3.org/2000/svg"
   xmlns:sodipodi="http://sodipodi.sourceforge.net/DTD/sodipodi-0.dtd"
   xmlns:inkscape="http://www.inkscape.org/namespaces/inkscape"
   width="12"
   height="10"
   id="svg2"
   version="1.1"
   inkscape:version="0.48.5 r10040"
   sodipodi:docname="Close">
  <defs
     id="defs4" />
  <sodipodi:namedview
     id="base"
     pagecolor="#ffffff"
     bordercolor="#666666"
     borderopacity="1.0"
     inkscape:pageopacity="0"
     inkscape:pageshadow="2"
     inkscape:zoom="57.926187"
     inkscape:cx="7.1230085"
     inkscape:cy="6.7170313"
     inkscape:document-units="px"
     inkscape:current-layer="layer1"
     showgrid="true"
     inkscape:snap-global="false"
     showguides="false"
     inkscape:window-width="1364"
     inkscape:window-height="711"
     inkscape:window-x="0"
     inkscape:window-y="24"
     inkscape:window-maximized="0">
    <inkscape:grid
       type="xygrid"
       id="grid3882"
       empspacing="5"
       visible="true"
       enabled="true"
       snapvisiblegridlinesonly="true" />
  </sodipodi:namedview>
  <metadata
     id="metadata7">
    <rdf:RDF>
      <cc:Work
         rdf:about="">
        <dc:format>image/svg+xml</dc:format>
        <dc:type
           rdf:resource="http://purl.org/dc/dcmitype/StillImage" />
        <dc:title></dc:title>
      </cc:Work>
    </rdf:RDF>
  </metadata>
  <g
     inkscape:label="Layer 1"
     inkscape:groupmode="layer"
     id="layer1"
     transform="translate(0,-1042.3622)">
    <path
       style="fill:#000000;fill-opacity:1;stroke:none"
       d="m 2.0025485,1043.3853 2.0198115,0 0,1.0185 0.984011,0 0,0.984 1.985286,0 0,-0.984 1.001274,0 0,-1.0185 2.002548,0 0,1.0013 0,0 0,0 -1.001274,0 0,1.0012 -1.001274,0 0,0.9841 -1.001274,0 0,1.0012 1.001274,0 0,1.0013 1.001274,0 0,1.0013 1.001274,0 0,1.0013 -2.002548,0 0,-1.0013 -1.001274,0 0,-0.984 -1.985286,0 0,0.984 -1.001274,0 0,1.0013 -2.0025485,0 0,-1.0013 1.0012745,0 0,-1.0013 1.001274,0 0,-1.0013 1.001274,0 0,-1.0012 -1.001274,0 0,-0.9841 -1.001274,0 0,-1.0012 -1.0012745,0 0,-1.0186 z"
       id="path3884"
       inkscape:connector-curvature="0" />
  </g>
</svg>
