<?xml version="1.0" encoding="UTF-8" standalone="no"?>
<!DOCTYPE svg PUBLIC "-//W3C//DTD SVG 20010904//EN"
              "http://www.w3.org/TR/2001/REC-SVG-20010904/DTD/svg10.dtd">

<svg xmlns="http://www.w3.org/2000/svg"
     width="0.114599in" height="0.114599in"
     viewBox="0 0 11 11">
  <path id="Up"
        fill="black" stroke="none" stroke-width="0"
        d="M 2.00,8.00
           C 2.00,8.00 2.00,7.00 2.00,7.00
             2.00,7.00 3.00,7.00 3.00,7.00
             3.00,7.00 3.00,6.00 3.00,6.00
             3.00,6.00 4.00,6.00 4.00,6.00
             4.00,6.00 4.00,5.00 4.00,5.00
             4.00,5.00 5.00,5.00 5.00,5.00
             5.00,5.00 5.00,4.00 5.00,4.00
             5.00,4.00 6.00,4.00 6.00,4.00
             6.00,4.00 6.00,5.00 6.00,5.00
             6.00,5.00 7.00,5.00 7.00,5.00
             7.00,5.00 7.00,6.00 7.00,6.00
             7.00,6.00 8.00,6.00 8.00,6.00
             8.00,6.00 8.00,7.00 8.00,7.00
             8.00,7.00 9.00,7.00 9.00,7.00
             9.00,7.00 9.00,8.00 9.00,8.00
             9.00,8.00 2.00,8.00 2.00,8.00 Z" />
</svg>
